# xmcd CD database file
# Copyright (C) 1993-1996 Ti Kan
#
# Track frame offsets:
# 150
# 11712
# 28190
# 41155
# 52802
# 65132
# 78665
# 93157
# 106065
# 120352
#
# Disc length: 1772 seconds
#
# Revision: 0
# Processed by: cddbd v1.4b41PL1 Copyright (c) Steve Scherf et al.
# Submitted via: inCDius 1.1b5
#
DISCID=7a06ea0a
DTITLE=Freddy Fender - Freddy Fender - Before The Next Teardrop Falls
DYEAR=1900
DGENRE=
TTITLE0=Before The Next Teardrop Falls
TTITLE1=Secret Love
TTITLE2=You'll Lose A Good Thing
TTITLE3=Living It Down
TTITLE4=Wasted Days And Wasted Nights
TTITLE5=After The Fire Is Gone
TTITLE6=Roses Are Red
TTITLE7=I Love My Rancho Grande
TTITLE8=Wild Side Of Life
TTITLE9=Cajun Stomp
EXTD=
EXTT0=
EXTT1=
EXTT2=
EXTT3=
EXTT4=
EXTT5=
EXTT6=
EXTT7=
EXTT8=
EXTT9=
PLAYORDER=
